<?xml version="1.0" standalone="no"?><!DOCTYPE svg PUBLIC "-//W3C//DTD SVG 1.1//EN" "http://www.w3.org/Graphics/SVG/1.1/DTD/svg11.dtd"><svg t="1706165754266" class="icon" viewBox="0 0 1222 1024" version="1.1" xmlns="http://www.w3.org/2000/svg" p-id="6836" xmlns:xlink="http://www.w3.org/1999/xlink" width="238.671875" height="200"><path d="M4.982519 875.693158s-7.566048-46.072926-2.645041-55.853427c4.367394-8.734787 72.523338-12.917643 102.849042-9.472938 9.903526 1.107227 15.255121 12.302517 18.453776 22.698144 9.595963 30.756292 32.232594 45.21175 63.296449 49.948219a2834.622935 2834.622935 0 0 0 335.428126 29.956628 2857.505617 2857.505617 0 0 0 513.199495-31.309905c29.772091-4.428906 51.978134-14.824533 60.282333-46.995615 4.736469-18.453775 19.74554-28.234276 39.245029-28.54184s40.782844 0 61.512585 0.492101 25.835286 7.873611 25.896798 27.188563c0 4.490419-3.137142 23.128732-3.137142 23.128732s0 1.722352-5.351594 25.527722c-13.901844 52.470235-47.856791 83.28804-100.327026 96.636271-86.732745 22.021505-175.372379 29.956629-264.012014 36.476963a3219.814741 3219.814741 0 0 1-597.53325-12.302517 1175.443984 1175.443984 0 0 1-141.909533-24.358984C55.976452 965.93212 16.977473 933.699525 5.167057 875.693158M1218.502793 213.325644c0 10.580165-75.968042 11.687391-95.159968 7.319998-16.792936-3.752268-21.775455-17.100499-28.54184-30.141167a72.461825 72.461825 0 0 0-57.083679-41.151919c-237.74614-32.663183-475.922869-45.396288-715.083798-14.824533q-65.387878 8.304199-131.021806 14.455458c-31.125368 2.768066-52.654773 9.534451-66.126029 45.4578-8.242686 22.021505-24.605034 30.202679-47.795278 31.432931s-48.164354 4.674956-71.108548-14.147895C1.537815 195.61002 2.706554 177.709858 2.706554 161.962636c3.875293-57.083679 36.907551-96.882321 95.467531-112.56803 62.496786-16.608398 126.5929-24.605034 190.689013-32.417133 174.695741-21.037304 345.208626-19.561002 525.071425-10.703189 94.852406 4.674956 175.86448 9.595963 283.511503 34.077972 83.411065 19.007389 120.995254 42.136121 120.995255 173.096413M1220.594221 323.617709q-0.369076 198.255061 0 396.510122c0 11.19529 1.722352 22.513606-1.66084 33.585871-6.704872 23.620833-26.142849 22.452093-44.658136 22.698144-70.308884 0.984201-73.446026-2.029915-73.446027-71.108548v-387.529285c0-53.269898 6.151258-59.175107 60.651409-59.113594 24.605034 0 57.083679 1.537815 58.375443 24.97411M888.856851 428.312128c14.27092-45.642338 26.511924-84.579804 38.568391-123.51727s21.037304-45.642338 61.512585-46.011414c77.874932-0.799664 79.289722 1.045714 53.515948 72.830901-23.866883 65.387878-46.442002 131.083318-71.785186 195.85607s-17.038986 131.206343-18.453776 197.393885c-0.922689 42.136121-9.657476 52.285697-51.670571 54.50015a118.780801 118.780801 0 0 1-21.283354-1.783865c-50.44032-6.520334-51.424521-7.627561-47.36469-56.776116 8.058149-97.620472-20.914279-187.859434-54.438638-277.360245-18.453775-49.763681-35.615787-100.142488-53.638974-150.152219-8.304199-23.005707 0.799664-33.278308 23.682345-33.462847 93.130053-0.738151 85.010392-11.502853 111.952905 74.799304 8.980837 28.972427 18.146213 57.883342 29.403015 93.683666zM676.146333 521.134619c0 71.662161-0.861176 143.324323 0.430588 214.986484 0.492101 27.311588-9.780501 38.875954-36.907551 40.598306-81.934763 5.351595-85.748543 2.337478-85.748543-79.043672V307.624437c0-41.64402 6.151258-47.610741 47.672253-48.656455 72.892413-1.783865 75.291404 0.738151 74.553253 74.553253-0.492101 62.435274 0 124.870547 0 187.305821z" fill="#42BC56" p-id="6837"></path><path d="M494.315132 782.194029c-35.984862-14.639995-20.606716-36.353938-8.7963-60.589896a85.687031 85.687031 0 0 0 7.13546-29.279991c6.704872-119.765003 4.305881-237.25404-0.676638-356.772992-1.537815-36.599988-21.959993-61.512585-55.91494-73.507539-60.405358-21.590917-121.979456-25.404698-183.799604-6.151258-54.684688 16.977473-72.8309 41.520995-73.261488 98.789211-0.430588 51.239983 0 102.541479 0 165.407341 2.829579 53.823512-4.182856 119.45744 3.875293 184.90683 4.736469 38.752928 25.958311 61.512585 62.435273 70.43191 30.756292 7.689073 61.88166 14.639995 93.929717 13.963356a43.919986 43.919986 0 0 1 39.306542 19.068902c26.942512 36.1694 67.663843 37.645702 104.263831 28.172764 26.204361-7.13546 29.156965-47.303178 11.502854-54.438638zM368.583408 517.505376h-0.676638v156.795579c0 23.436295-4.121343 45.396288-33.216796 45.027212-26.081336-0.307563-33.401334-20.114615-33.462846-43.058809v-319.865441c0-23.128732 9.411425-36.907551 34.385535-37.276627 26.388899 0 32.909233 16.362348 32.970745 38.199315v160.178771z" fill="#42BC56" p-id="6838"></path><path d="M0 263.273863m31.002343 0l54.623175 0q31.002343 0 31.002343 31.002343l0 58.744518q0 31.002343-31.002343 31.002343l-54.623175 0q-31.002343 0-31.002343-31.002343l0-58.744518q0-31.002343 31.002343-31.002343Z" fill="#42BC56" p-id="6839"></path><path d="M81.135099 776.411846H32.84772a32.417132 32.417132 0 0 1-32.294107-32.294107v-298.336037a32.417132 32.417132 0 0 1 32.294107-32.294107h48.287379c32.294107 0 32.294107 9.226888 32.294107 32.294107l1.783865 298.705112a33.647384 33.647384 0 0 1-34.077972 31.925032z" fill="#42BC56" p-id="6840"></path></svg>