<?xml version="1.0" standalone="no"?><!DOCTYPE svg PUBLIC "-//W3C//DTD SVG 1.1//EN" "http://www.w3.org/Graphics/SVG/1.1/DTD/svg11.dtd"><svg t="1706165157962" class="icon" viewBox="0 0 1024 1024" version="1.1" xmlns="http://www.w3.org/2000/svg" p-id="7992" xmlns:xlink="http://www.w3.org/1999/xlink" width="200" height="200"><path d="M187.345455 418.133333H132.913131C137.567677 489.115152 120.242424 543.030303 120.242424 543.030303l29.220202 53.527273c38.658586-16.549495 37.882828-178.424242 37.882829-178.424243zM364.218182 418.133333h-54.432323s-0.775758 161.874747 37.882828 178.424243l29.220202-53.527273s-17.454545-53.915152-12.670707-124.89697zM221.737374 580.913131H187.345455c0 40.080808 34.00404 43.70101 34.00404 43.70101h17.325252c34.909091 0 36.331313-39.822222 36.331314-39.822222V347.022222H221.737374v233.890909zM405.074747 467.006061h35.555556l-27.151515 55.337373s-15.773737 31.030303 9.438384 32.064647h58.957575l23.531314-42.79596h-29.478788c-3.749495 0-6.206061-4.008081-4.525253-7.240404l44.088889-86.238384h-51.070707l-2.973737 6.206061h-3.361617c-3.749495 0-6.206061-4.008081-4.525252-7.240404l36.719192-69.947475h-51.070707l-43.70101 87.919192c0-0.129293-15.773737 30.90101 9.567676 31.935354zM412.832323 571.733333s-6.464646 0.646465-10.860606-3.749495l-26.50505 50.941415s4.39596 5.947475 13.187878 5.947474h65.551516l28.056565-53.139394h-69.430303z" fill="#E7211A" p-id="7993"></path><path d="M610.779798 418.133333h33.745455v-54.173737h-120.501011v54.173737h34.133334v155.280808h-50.553536L482.262626 624.614141h179.587879v-51.2h-51.070707zM852.29899 458.084848h-6.206061v-35.038383c0-32.840404-26.634343-59.474747-59.474747-59.474748h-20.557576v-16.549495h-52.10505v16.549495h-32.711112v53.139394h32.711112v41.373737h-52.105051v53.139394h52.105051V624.484848h52.10505v-113.260606H837.818182c7.111111 0 12.8 5.688889 12.8 12.8v55.854546h-49.648485c0 24.694949 20.040404 44.735354 44.735354 44.735353h13.446464c24.694949 0 44.735354-20.040404 44.735354-44.735353v-70.335354c-0.129293-28.444444-23.143434-51.458586-51.587879-51.458586z m-86.238384-41.373737H784.808081c4.525253 0 8.145455 3.620202 8.145454 8.145455v33.228282h-26.892929v-41.373737z" fill="#E7211A" p-id="7994"></path><path d="M902.981818 389.688889c0-14.222222-11.507071-25.729293-25.729293-25.729293-14.222222 0-25.729293 11.507071-25.729293 25.729293v25.729293h25.729293c14.222222 0.129293 25.729293-11.507071 25.729293-25.729293z" fill="#E7211A" p-id="7995"></path></svg>